<svg xmlns="http://www.w3.org/2000/svg" width="16" height="16" fill="none" viewBox="0 0 16 16">
  <path fill="currentColor" d="M3 2.5A1.5 1.5 0 0 1 4.5 1h7A1.5 1.5 0 0 1 13 2.5v11a1.5 1.5 0 0 1-1.5 1.5h-7A1.5 1.5 0 0 1 3 13.5v-11Zm1.5-.25a.25.25 0 0 0-.25.25v11c0 .138.112.25.25.25h7a.25.25 0 0 0 .25-.25v-11a.25.25 0 0 0-.25-.25h-7Z"/>
  <path fill="currentColor" d="M5.25 4.25A.75.75 0 0 1 6 3.5h4a.75.75 0 0 1 .75.75v1.5A.75.75 0 0 1 10 6.5H6a.75.75 0 0 1-.75-.75v-1.5Zm.25 4A.75.75 0 0 1 6.25 7.5h1.5a.75.75 0 0 1 .75.75v1.5a.75.75 0 0 1-.75.75h-1.5a.75.75 0 0 1-.75-.75v-1.5Zm3.5 0a.75.75 0 0 1 .75-.75h.5a.75.75 0 0 1 .75.75v.5a.75.75 0 0 1-.75.75h-.5A.75.75 0 0 1 9 8.75v-.5Zm0 3a.75.75 0 0 1 .75-.75h.5a.75.75 0 0 1 .75.75v.5a.75.75 0 0 1-.75.75h-.5A.75.75 0 0 1 9 11.75v-.5Z"/>
</svg>
