<svg xmlns="http://www.w3.org/2000/svg" width="64" height="64" fill="none" viewBox="0 0 64 64">
  <rect width="46" height="56" x="9" y="4" fill="currentColor" opacity=".12" rx="6"/>
  <path fill="currentColor" d="M15 4h34a6 6 0 0 1 6 6v44a6 6 0 0 1-6 6H15a6 6 0 0 1-6-6V10a6 6 0 0 1 6-6Zm0 4a2 2 0 0 0-2 2v44a2 2 0 0 0 2 2h34a2 2 0 0 0 2-2V10a2 2 0 0 0-2-2H15Z"/>
  <path fill="currentColor" d="M19 15a3 3 0 0 1 3-3h20a3 3 0 0 1 3 3v8a3 3 0 0 1-3 3H22a3 3 0 0 1-3-3v-8Zm4 1v6h18v-6H23Zm-4 18a4 4 0 0 1 4-4h6a4 4 0 0 1 4 4v6a4 4 0 0 1-4 4h-6a4 4 0 0 1-4-4v-6Zm4 0v6h6v-6h-6Zm17-4a2 2 0 0 1 2-2h3a2 2 0 0 1 0 4h-3a2 2 0 0 1-2-2Zm-3 8a2 2 0 0 1 2-2h6a2 2 0 0 1 0 4h-6a2 2 0 0 1-2-2Zm-18 12a2 2 0 0 1 2-2h24a2 2 0 0 1 0 4H21a2 2 0 0 1-2-2Z"/>
</svg>
